{
DisplayStrings = (
/minus
);
date = "2013-05-07 17:01:52 +0000";
designer = "Shinji Pons";
designerURL = www.shinjipons.com;
familyName = "Modulo 12";
fontMaster = (
{
alignmentZones = (
"{128, 129}",
"{128, 129}",
"{128, 129}",
"{0, -2}",
"{0, -2}"
);
ascender = 128;
capHeight = 128;
customParameters = (
{
name = familyName;
value = "Modulo 12";
}
);
descender = 0;
guideLines = (
{
position = "{-18, 58}";
},
{
angle = 90;
position = "{78, 139}";
},
{
angle = 90;
position = "{66, 135}";
},
{
position = "{-18, 70}";
},
{
angle = 90;
position = "{20, 143}";
},
{
angle = 90;
position = "{124, 136}";
},
{
position = "{-19, 116}";
},
{
position = "{-20, 12}";
},
{
angle = 90;
position = "{136, -22}";
},
{
angle = 90;
position = "{8, -30}";
}
);
horizontalStems = (
12
);
id = "940E2F63-624A-4C3D-A909-721782B4CF41";
userData = {
GSOffsetHorizontal = "-1";
GSOffsetMakeStroke = 1;
GSOffsetPosition = 0;
GSOffsetProportional = 1;
GSOffsetVertical = 10;
};
verticalStems = (
12
);
weightValue = 12;
widthValue = 128;
xHeight = 128;
}
);
glyphs = (
{
glyphname = A;
lastChange = "2013-06-12 18:07:26 +0200";
layers = (
{
guideLines = (
{
position = "{-11, 64}";
showMeasurement = 1;
},
{
angle = 90;
position = "{50, -8}";
showMeasurement = 1;
}
);
layerId = "940E2F63-624A-4C3D-A909-721782B4CF41";
name = Regular;
paths = (
{
closed = 1;
nodes = (
"134 126 LINE",
"134 2 LINE",
"10 2 LINE",
"10 68 LINE",
"76 68 LINE",
"76 60 LINE",
"18 60 LINE",
"18 10 LINE",
"126 10 LINE",
"126 118 LINE",
"10 118 LINE",
"10 126 LINE"
);
},
{
closed = 1;
nodes = (
"8 116 LINE",
"124 116 LINE",
"124 12 LINE",
"20 12 LINE",
"20 58 LINE",
"78 58 LINE",
"78 70 LINE",
"8 70 LINE",
"8 0 LINE",
"136 0 LINE",
"136 128 LINE",
"8 128 LINE"
);
}
);
width = 144;
}
);
unicode = 0041;
},
{
glyphname = B;
lastChange = "2013-06-12 18:07:34 +0200";
layers = (
{
layerId = "940E2F63-624A-4C3D-A909-721782B4CF41";
name = Regular;
paths = (
{
closed = 1;
nodes = (
"10 126 LINE",
"10 2 LINE",
"18 2 LINE",
"18 118 LINE",
"126 118 LINE",
"126 68 LINE",
"68 68 LINE",
"68 60 LINE",
"126 60 LINE",
"126 10 LINE",
"68 10 LINE",
"68 2 LINE",
"134 2 LINE",
"134 126 LINE"
);
},
{
closed = 1;
nodes = (
"136 0 LINE",
"66 0 LINE",
"66 12 LINE",
"124 12 LINE",
"124 58 LINE",
"66 58 LINE",
"66 70 LINE",
"124 70 LINE",
"124 116 LINE",
"20 116 LINE",
"20 0 LINE",
"8 0 LINE",
"8 128 LINE",
"136 128 LINE"
);
}
);
width = 144;
}
);
unicode = 0042;
},
{
glyphname = C;
lastChange = "2013-06-12 18:07:38 +0200";
layers = (
{
layerId = "940E2F63-624A-4C3D-A909-721782B4CF41";
name = Regular;
paths = (
{
closed = 1;
nodes = (
"10 2 LINE",
"10 126 LINE",
"134 126 LINE",
"134 118 LINE",
"18 118 LINE",
"18 10 LINE",
"134 10 LINE",
"134 2 LINE"
);
},
{
closed = 1;
nodes = (
"136 12 LINE",
"20 12 LINE",
"20 116 LINE",
"136 116 LINE",
"136 128 LINE",
"8 128 LINE",
"8 0 LINE",
"136 0 LINE"
);
}
);
width = 144;
}
);
unicode = 0043;
},
{
glyphname = D;
lastChange = "2013-06-12 18:07:41 +0200";
layers = (
{
layerId = "940E2F63-624A-4C3D-A909-721782B4CF41";
name = Regular;
paths = (
{
closed = 1;
nodes = (
"134 126 LINE",
"10 126 LINE",
"10 118 LINE",
"126 118 LINE",
"126 10 LINE",
"18 10 LINE",
"18 68 LINE",
"10 68 LINE",
"10 2 LINE",
"134 2 LINE"
);
},
{
closed = 1;
nodes = (
"8 0 LINE",
"8 70 LINE",
"20 70 LINE",
"20 12 LINE",
"124 12 LINE",
"124 116 LINE",
"8 116 LINE",
"8 128 LINE",
"136 128 LINE",
"136 0 LINE"
);
}
);
width = 144;
}
);
unicode = 0044;
},
{
glyphname = E;
lastChange = "2013-06-12 18:07:45 +0200";
layers = (
{
layerId = "940E2F63-624A-4C3D-A909-721782B4CF41";
name = Regular;
paths = (
{
closed = 1;
nodes = (
"134 60 LINE",
"134 126 LINE",
"68 126 LINE",
"68 118 LINE",
"126 118 LINE",
"126 68 LINE",
"18 68 LINE",
"18 126 LINE",
"10 126 LINE",
"10 2 LINE",
"134 2 LINE",
"134 10 LINE",
"18 10 LINE",
"18 60 LINE"
);
},
{
closed = 1;
nodes = (
"20 12 LINE",
"136 12 LINE",
"136 0 LINE",
"8 0 LINE",
"8 128 LINE",
"20 128 LINE",
"20 70 LINE",
"124 70 LINE",
"124 116 LINE",
"66 116 LINE",
"66 128 LINE",
"136 128 LINE",
"136 58 LINE",
"20 58 LINE"
);
}
);
width = 144;
}
);
unicode = 0045;
},
{
glyphname = F;
lastChange = "2013-06-12 18:07:47 +0200";
layers = (
{
layerId = "940E2F63-624A-4C3D-A909-721782B4CF41";
name = Regular;
paths = (
{
closed = 1;
nodes = (
"18 2 LINE",
"18 60 LINE",
"134 60 LINE",
"134 68 LINE",
"18 68 LINE",
"18 118 LINE",
"134 118 LINE",
"134 126 LINE",
"10 126 LINE",
"10 2 LINE"
);
},
{
closed = 1;
nodes = (
"8 128 LINE",
"136 128 LINE",
"136 116 LINE",
"20 116 LINE",
"20 70 LINE",
"136 70 LINE",
"136 58 LINE",
"20 58 LINE",
"20 0 LINE",
"8 0 LINE"
);
}
);
width = 144;
}
);
unicode = 0046;
},
{
glyphname = H;
lastChange = "2013-06-12 18:07:53 +0200";
layers = (
{
layerId = "940E2F63-624A-4C3D-A909-721782B4CF41";
name = Regular;
paths = (
{
closed = 1;
nodes = (
"126 126 LINE",
"126 68 LINE",
"18 68 LINE",
"18 126 LINE",
"10 126 LINE",
"10 2 LINE",
"18 2 LINE",
"18 60 LINE",
"126 60 LINE",
"126 2 LINE",
"134 2 LINE",
"134 126 LINE"
);
},
{
closed = 1;
nodes = (
"136 0 LINE",
"124 0 LINE",
"124 58 LINE",
"20 58 LINE",
"20 0 LINE",
"8 0 LINE",
"8 128 LINE",
"20 128 LINE",
"20 70 LINE",
"124 70 LINE",
"124 128 LINE",
"136 128 LINE"
);
}
);
width = 144;
}
);
unicode = 0048;
},
{
glyphname = J;
lastChange = "2013-06-12 18:07:56 +0200";
layers = (
{
layerId = "940E2F63-624A-4C3D-A909-721782B4CF41";
name = Regular;
paths = (
{
closed = 1;
nodes = (
"68 126 LINE",
"68 118 LINE",
"126 118 LINE",
"126 10 LINE",
"10 10 LINE",
"10 2 LINE",
"134 2 LINE",
"134 126 LINE"
);
},
{
closed = 1;
nodes = (
"136 0 LINE",
"8 0 LINE",
"8 12 LINE",
"124 12 LINE",
"124 116 LINE",
"66 116 LINE",
"66 128 LINE",
"136 128 LINE"
);
}
);
width = 144;
}
);
unicode = 004A;
},
{
glyphname = K;
lastChange = "2013-06-12 18:07:59 +0200";
layers = (
{
layerId = "940E2F63-624A-4C3D-A909-721782B4CF41";
name = Regular;
paths = (
{
closed = 1;
nodes = (
"134 118 LINE",
"134 126 LINE",
"68 126 LINE",
"68 68 LINE",
"18 68 LINE",
"18 126 LINE",
"10 126 LINE",
"10 2 LINE",
"18 2 LINE",
"18 60 LINE",
"126 60 LINE",
"126 2 LINE",
"134 2 LINE",
"134 68 LINE",
"76 68 LINE",
"76 118 LINE"
);
},
{
closed = 1;
nodes = (
"78 70 LINE",
"136 70 LINE",
"136 0 LINE",
"124 0 LINE",
"124 58 LINE",
"20 58 LINE",
"20 0 LINE",
"8 0 LINE",
"8 128 LINE",
"20 128 LINE",
"20 70 LINE",
"66 70 LINE",
"66 128 LINE",
"136 128 LINE",
"136 116 LINE",
"78 116 LINE"
);
}
);
width = 144;
}
);
unicode = 004B;
},
{
glyphname = L;
lastChange = "2013-06-12 18:08:01 +0200";
layers = (
{
layerId = "940E2F63-624A-4C3D-A909-721782B4CF41";
name = Regular;
paths = (
{
closed = 1;
nodes = (
"134 2 LINE",
"134 10 LINE",
"18 10 LINE",
"18 126 LINE",
"10 126 LINE",
"10 2 LINE"
);
},
{
closed = 1;
nodes = (
"8 128 LINE",
"20 128 LINE",
"20 12 LINE",
"136 12 LINE",
"136 0 LINE",
"8 0 LINE"
);
}
);
width = 144;
}
);
unicode = 004C;
},
{
glyphname = M;
lastChange = "2013-06-12 18:08:03 +0200";
layers = (
{
layerId = "940E2F63-624A-4C3D-A909-721782B4CF41";
name = Regular;
paths = (
{
closed = 1;
nodes = (
"10 126 LINE",
"10 2 LINE",
"18 2 LINE",
"18 118 LINE",
"68 118 LINE",
"68 2 LINE",
"76 2 LINE",
"76 118 LINE",
"126 118 LINE",
"126 2 LINE",
"134 2 LINE",
"134 126 LINE"
);
},
{
closed = 1;
nodes = (
"136 0 LINE",
"124 0 LINE",
"124 116 LINE",
"78 116 LINE",
"78 0 LINE",
"66 0 LINE",
"66 116 LINE",
"20 116 LINE",
"20 0 LINE",
"8 0 LINE",
"8 128 LINE",
"136 128 LINE"
);
}
);
width = 144;
}
);
unicode = 004D;
},
{
glyphname = N;
lastChange = "2013-06-12 18:08:05 +0200";
layers = (
{
layerId = "940E2F63-624A-4C3D-A909-721782B4CF41";
name = Regular;
paths = (
{
closed = 1;
nodes = (
"126 126 LINE",
"126 10 LINE",
"76 10 LINE",
"76 126 LINE",
"10 126 LINE",
"10 2 LINE",
"18 2 LINE",
"18 118 LINE",
"68 118 LINE",
"68 2 LINE",
"134 2 LINE",
"134 126 LINE"
);
},
{
closed = 1;
nodes = (
"136 0 LINE",
"66 0 LINE",
"66 116 LINE",
"20 116 LINE",
"20 0 LINE",
"8 0 LINE",
"8 128 LINE",
"78 128 LINE",
"78 12 LINE",
"124 12 LINE",
"124 128 LINE",
"136 128 LINE"
);
}
);
width = 144;
}
);
unicode = 004E;
},
{
glyphname = O;
lastChange = "2013-06-12 18:08:06 +0200";
layers = (
{
layerId = "940E2F63-624A-4C3D-A909-721782B4CF41";
name = Regular;
paths = (
{
closed = 1;
nodes = (
"10 126 LINE",
"10 2 LINE",
"134 2 LINE",
"134 126 LINE"
);
},
{
closed = 1;
nodes = (
"136 0 LINE",
"8 0 LINE",
"8 128 LINE",
"136 128 LINE"
);
},
{
closed = 1;
nodes = (
"126 10 LINE",
"18 10 LINE",
"18 118 LINE",
"126 118 LINE"
);
},
{
closed = 1;
nodes = (
"20 116 LINE",
"20 12 LINE",
"124 12 LINE",
"124 116 LINE"
);
}
);
width = 144;
}
);
unicode = 004F;
},
{
glyphname = P;
lastChange = "2013-06-12 18:08:12 +0200";
layers = (
{
layerId = "940E2F63-624A-4C3D-A909-721782B4CF41";
name = Regular;
paths = (
{
closed = 1;
nodes = (
"10 2 LINE",
"10 126 LINE",
"134 126 LINE",
"134 60 LINE",
"68 60 LINE",
"68 68 LINE",
"126 68 LINE",
"126 118 LINE",
"18 118 LINE",
"18 2 LINE"
);
},
{
closed = 1;
nodes = (
"20 116 LINE",
"124 116 LINE",
"124 70 LINE",
"66 70 LINE",
"66 58 LINE",
"136 58 LINE",
"136 128 LINE",
"8 128 LINE",
"8 0 LINE",
"20 0 LINE"
);
}
);
width = 144;
}
);
unicode = 0050;
},
{
glyphname = Q;
lastChange = "2013-06-12 18:08:14 +0200";
layers = (
{
layerId = "940E2F63-624A-4C3D-A909-721782B4CF41";
name = Regular;
paths = (
{
closed = 1;
nodes = (
"10 126 LINE",
"10 2 LINE",
"134 2 LINE",
"134 126 LINE"
);
},
{
closed = 1;
nodes = (
"136 0 LINE",
"8 0 LINE",
"8 128 LINE",
"136 128 LINE"
);
},
{
closed = 1;
nodes = (
"126 10 LINE",
"76 10 LINE",
"76 68 LINE",
"68 68 LINE",
"68 10 LINE",
"18 10 LINE",
"18 118 LINE",
"126 118 LINE"
);
},
{
closed = 1;
nodes = (
"20 116 LINE",
"20 12 LINE",
"66 12 LINE",
"66 70 LINE",
"78 70 LINE",
"78 12 LINE",
"124 12 LINE",
"124 116 LINE"
);
}
);
width = 144;
}
);
unicode = 0051;
},
{
glyphname = R;
lastChange = "2013-06-12 18:08:16 +0200";
layers = (
{
layerId = "940E2F63-624A-4C3D-A909-721782B4CF41";
name = Regular;
paths = (
{
closed = 1;
nodes = (
"134 60 LINE",
"134 126 LINE",
"10 126 LINE",
"10 2 LINE",
"18 2 LINE",
"18 118 LINE",
"126 118 LINE",
"126 68 LINE",
"68 68 LINE",
"68 2 LINE",
"134 2 LINE",
"134 10 LINE",
"76 10 LINE",
"76 60 LINE"
);
},
{
closed = 1;
nodes = (
"78 12 LINE",
"136 12 LINE",
"136 0 LINE",
"66 0 LINE",
"66 70 LINE",
"124 70 LINE",
"124 116 LINE",
"20 116 LINE",
"20 0 LINE",
"8 0 LINE",
"8 128 LINE",
"136 128 LINE",
"136 58 LINE",
"78 58 LINE"
);
}
);
width = 144;
}
);
unicode = 0052;
},
{
glyphname = T;
lastChange = "2013-06-12 18:08:20 +0200";
layers = (
{
layerId = "940E2F63-624A-4C3D-A909-721782B4CF41";
name = Regular;
paths = (
{
closed = 1;
nodes = (
"10 126 LINE",
"10 118 LINE",
"68 118 LINE",
"68 2 LINE",
"76 2 LINE",
"76 118 LINE",
"134 118 LINE",
"134 126 LINE"
);
},
{
closed = 1;
nodes = (
"136 116 LINE",
"78 116 LINE",
"78 0 LINE",
"66 0 LINE",
"66 116 LINE",
"8 116 LINE",
"8 128 LINE",
"136 128 LINE"
);
}
);
width = 144;
}
);
unicode = 0054;
},
{
glyphname = V;
lastChange = "2013-06-12 18:08:23 +0200";
layers = (
{
layerId = "940E2F63-624A-4C3D-A909-721782B4CF41";
name = Regular;
paths = (
{
closed = 1;
nodes = (
"10 2 LINE",
"76 2 LINE",
"76 60 LINE",
"134 60 LINE",
"134 126 LINE",
"126 126 LINE",
"126 68 LINE",
"68 68 LINE",
"68 10 LINE",
"18 10 LINE",
"18 126 LINE",
"10 126 LINE"
);
},
{
closed = 1;
nodes = (
"20 128 LINE",
"20 12 LINE",
"66 12 LINE",
"66 70 LINE",
"124 70 LINE",
"124 128 LINE",
"136 128 LINE",
"136 58 LINE",
"78 58 LINE",
"78 0 LINE",
"8 0 LINE",
"8 128 LINE"
);
}
);
width = 144;
}
);
unicode = 0056;
},
{
glyphname = X;
lastChange = "2013-06-12 18:08:26 +0200";
layers = (
{
layerId = "940E2F63-624A-4C3D-A909-721782B4CF41";
name = Regular;
paths = (
{
closed = 1;
nodes = (
"134 118 LINE",
"134 126 LINE",
"10 126 LINE",
"10 60 LINE",
"18 60 LINE",
"18 118 LINE",
"68 118 LINE",
"68 10 LINE",
"10 10 LINE",
"10 2 LINE",
"134 2 LINE",
"134 68 LINE",
"126 68 LINE",
"126 10 LINE",
"76 10 LINE",
"76 118 LINE"
);
},
{
closed = 1;
nodes = (
"78 12 LINE",
"124 12 LINE",
"124 70 LINE",
"136 70 LINE",
"136 0 LINE",
"8 0 LINE",
"8 12 LINE",
"66 12 LINE",
"66 116 LINE",
"20 116 LINE",
"20 58 LINE",
"8 58 LINE",
"8 128 LINE",
"136 128 LINE",
"136 116 LINE",
"78 116 LINE"
);
}
);
width = 144;
}
);
unicode = 0058;
},
{
glyphname = Y;
lastChange = "2013-06-12 18:08:28 +0200";
layers = (
{
layerId = "940E2F63-624A-4C3D-A909-721782B4CF41";
name = Regular;
paths = (
{
closed = 1;
nodes = (
"126 126 LINE",
"126 68 LINE",
"18 68 LINE",
"18 126 LINE",
"10 126 LINE",
"10 60 LINE",
"126 60 LINE",
"126 10 LINE",
"10 10 LINE",
"10 2 LINE",
"134 2 LINE",
"134 126 LINE"
);
},
{
closed = 1;
nodes = (
"136 0 LINE",
"8 0 LINE",
"8 12 LINE",
"124 12 LINE",
"124 58 LINE",
"8 58 LINE",
"8 128 LINE",
"20 128 LINE",
"20 70 LINE",
"124 70 LINE",
"124 128 LINE",
"136 128 LINE"
);
}
);
width = 144;
}
);
unicode = 0059;
},
{
glyphname = zero;
lastChange = "2013-06-12 18:09:24 +0200";
layers = (
{
components = (
{
name = O;
transform = "{1, 0, 0, 1, 0, 0}";
}
);
layerId = "940E2F63-624A-4C3D-A909-721782B4CF41";
name = Regular;
paths = (
{
closed = 1;
nodes = (
"68 60 LINE",
"76 60 LINE",
"76 68 LINE",
"68 68 LINE"
);
},
{
closed = 1;
nodes = (
"78 70 LINE",
"78 58 LINE",
"66 58 LINE",
"66 70 LINE"
);
}
);
width = 144;
}
);
unicode = 0030;
},
{
glyphname = one;
lastChange = "2013-06-12 18:09:26 +0200";
layers = (
{
layerId = "940E2F63-624A-4C3D-A909-721782B4CF41";
name = Regular;
paths = (
{
closed = 1;
nodes = (
"76 10 LINE",
"76 126 LINE",
"10 126 LINE",
"10 118 LINE",
"68 118 LINE",
"68 10 LINE",
"10 10 LINE",
"10 2 LINE",
"134 2 LINE",
"134 10 LINE"
);
},
{
closed = 1;
nodes = (
"136 0 LINE",
"8 0 LINE",
"8 12 LINE",
"66 12 LINE",
"66 116 LINE",
"8 116 LINE",
"8 128 LINE",
"78 128 LINE",
"78 12 LINE",
"136 12 LINE"
);
}
);
width = 144;
}
);
unicode = 0031;
},
{
glyphname = four;
lastChange = "2013-06-12 18:09:29 +0200";
layers = (
{
layerId = "940E2F63-624A-4C3D-A909-721782B4CF41";
name = Regular;
paths = (
{
closed = 1;
nodes = (
"126 126 LINE",
"126 68 LINE",
"18 68 LINE",
"18 126 LINE",
"10 126 LINE",
"10 60 LINE",
"126 60 LINE",
"126 2 LINE",
"134 2 LINE",
"134 126 LINE"
);
},
{
closed = 1;
nodes = (
"136 0 LINE",
"124 0 LINE",
"124 58 LINE",
"8 58 LINE",
"8 128 LINE",
"20 128 LINE",
"20 70 LINE",
"124 70 LINE",
"124 128 LINE",
"136 128 LINE"
);
}
);
width = 144;
}
);
unicode = 0034;
},
{
glyphname = seven;
lastChange = "2013-06-12 18:09:32 +0200";
layers = (
{
layerId = "940E2F63-624A-4C3D-A909-721782B4CF41";
name = Regular;
paths = (
{
closed = 1;
nodes = (
"10 126 LINE",
"10 118 LINE",
"126 118 LINE",
"126 68 LINE",
"68 68 LINE",
"68 2 LINE",
"76 2 LINE",
"76 60 LINE",
"134 60 LINE",
"134 126 LINE"
);
},
{
closed = 1;
nodes = (
"136 58 LINE",
"78 58 LINE",
"78 0 LINE",
"66 0 LINE",
"66 70 LINE",
"124 70 LINE",
"124 116 LINE",
"8 116 LINE",
"8 128 LINE",
"136 128 LINE"
);
}
);
width = 144;
}
);
unicode = 0037;
},
{
glyphname = eight;
lastChange = "2013-06-12 18:09:35 +0200";
layers = (
{
layerId = "940E2F63-624A-4C3D-A909-721782B4CF41";
name = Regular;
paths = (
{
closed = 1;
nodes = (
"10 126 LINE",
"10 2 LINE",
"134 2 LINE",
"134 126 LINE"
);
},
{
closed = 1;
nodes = (
"136 0 LINE",
"8 0 LINE",
"8 128 LINE",
"136 128 LINE"
);
},
{
closed = 1;
nodes = (
"126 68 LINE",
"18 68 LINE",
"18 118 LINE",
"126 118 LINE"
);
},
{
closed = 1;
nodes = (
"20 116 LINE",
"20 70 LINE",
"124 70 LINE",
"124 116 LINE"
);
},
{
closed = 1;
nodes = (
"126 10 LINE",
"18 10 LINE",
"18 60 LINE",
"126 60 LINE"
);
},
{
closed = 1;
nodes = (
"20 58 LINE",
"20 12 LINE",
"124 12 LINE",
"124 58 LINE"
);
}
);
width = 144;
}
);
unicode = 0038;
},
{
glyphname = asterisk;
lastChange = "2013-06-12 18:09:38 +0200";
layers = (
{
components = (
{
name = plus;
transform = "{1, 0, 0, 1, 0, 0}";
}
);
layerId = "940E2F63-624A-4C3D-A909-721782B4CF41";
name = Regular;
paths = (
{
closed = 1;
nodes = (
"10 2 LINE",
"18 2 LINE",
"18 10 LINE",
"10 10 LINE"
);
},
{
closed = 1;
nodes = (
"20 12 LINE",
"20 0 LINE",
"8 0 LINE",
"8 12 LINE"
);
},
{
closed = 1;
nodes = (
"126 2 LINE",
"134 2 LINE",
"134 10 LINE",
"126 10 LINE"
);
},
{
closed = 1;
nodes = (
"136 12 LINE",
"136 0 LINE",
"124 0 LINE",
"124 12 LINE"
);
},
{
closed = 1;
nodes = (
"10 118 LINE",
"18 118 LINE",
"18 126 LINE",
"10 126 LINE"
);
},
{
closed = 1;
nodes = (
"20 128 LINE",
"20 116 LINE",
"8 116 LINE",
"8 128 LINE"
);
},
{
closed = 1;
nodes = (
"126 118 LINE",
"134 118 LINE",
"134 126 LINE",
"126 126 LINE"
);
},
{
closed = 1;
nodes = (
"136 128 LINE",
"136 116 LINE",
"124 116 LINE",
"124 128 LINE"
);
}
);
width = 144;
}
);
unicode = 002A;
},
{
glyphname = backslash;
lastChange = "2013-06-12 18:09:40 +0200";
layers = (
{
layerId = "940E2F63-624A-4C3D-A909-721782B4CF41";
name = Regular;
paths = (
{
closed = 1;
nodes = (
"10 2 LINE",
"18 2 LINE",
"18 126 LINE",
"10 126 LINE"
);
},
{
closed = 1;
nodes = (
"20 128 LINE",
"20 0 LINE",
"8 0 LINE",
"8 128 LINE"
);
},
{
closed = 1;
nodes = (
"68 2 LINE",
"76 2 LINE",
"76 126 LINE",
"68 126 LINE"
);
},
{
closed = 1;
nodes = (
"78 128 LINE",
"78 0 LINE",
"66 0 LINE",
"66 128 LINE"
);
},
{
closed = 1;
nodes = (
"126 2 LINE",
"134 2 LINE",
"134 126 LINE",
"126 126 LINE"
);
},
{
closed = 1;
nodes = (
"136 128 LINE",
"136 0 LINE",
"124 0 LINE",
"124 128 LINE"
);
}
);
width = 144;
}
);
unicode = 005C;
},
{
glyphname = bullet;
lastChange = "2013-06-12 18:09:41 +0200";
layers = (
{
layerId = "940E2F63-624A-4C3D-A909-721782B4CF41";
name = Regular;
paths = (
{
closed = 1;
nodes = (
"10 126 LINE",
"10 118 LINE",
"134 118 LINE",
"134 126 LINE"
);
},
{
closed = 1;
nodes = (
"136 116 LINE",
"8 116 LINE",
"8 128 LINE",
"136 128 LINE"
);
},
{
closed = 1;
nodes = (
"10 68 LINE",
"10 60 LINE",
"134 60 LINE",
"134 68 LINE"
);
},
{
closed = 1;
nodes = (
"136 58 LINE",
"8 58 LINE",
"8 70 LINE",
"136 70 LINE"
);
},
{
closed = 1;
nodes = (
"10 10 LINE",
"10 2 LINE",
"134 2 LINE",
"134 10 LINE"
);
},
{
closed = 1;
nodes = (
"136 0 LINE",
"8 0 LINE",
"8 12 LINE",
"136 12 LINE"
);
}
);
width = 144;
}
);
unicode = 2022;
},
{
glyphname = comma;
lastChange = "2013-06-12 18:09:48 +0200";
layers = (
{
layerId = "940E2F63-624A-4C3D-A909-721782B4CF41";
name = Regular;
paths = (
{
closed = 1;
nodes = (
"10 2 LINE",
"134 2 LINE",
"134 126 LINE",
"10 126 LINE"
);
},
{
closed = 1;
nodes = (
"136 128 LINE",
"136 0 LINE",
"8 0 LINE",
"8 128 LINE"
);
}
);
width = 144;
}
);
unicode = 002C;
},
{
glyphname = ellipsis;
lastChange = "2013-06-12 18:09:51 +0200";
layers = (
{
layerId = "940E2F63-624A-4C3D-A909-721782B4CF41";
name = Regular;
paths = (
{
closed = 1;
nodes = (
"18 10 LINE",
"10 10 LINE",
"10 2 LINE",
"18 2 LINE"
);
},
{
closed = 1;
nodes = (
"8 0 LINE",
"8 12 LINE",
"20 12 LINE",
"20 0 LINE"
);
},
{
closed = 1;
nodes = (
"134 10 LINE",
"126 10 LINE",
"126 2 LINE",
"134 2 LINE"
);
},
{
closed = 1;
nodes = (
"124 0 LINE",
"124 12 LINE",
"136 12 LINE",
"136 0 LINE"
);
},
{
closed = 1;
nodes = (
"76 10 LINE",
"68 10 LINE",
"68 2 LINE",
"76 2 LINE"
);
},
{
closed = 1;
nodes = (
"66 0 LINE",
"66 12 LINE",
"78 12 LINE",
"78 0 LINE"
);
},
{
closed = 1;
nodes = (
"10 126 LINE",
"10 118 LINE",
"134 118 LINE",
"134 126 LINE"
);
},
{
closed = 1;
nodes = (
"136 116 LINE",
"8 116 LINE",
"8 128 LINE",
"136 128 LINE"
);
},
{
closed = 1;
nodes = (
"10 68 LINE",
"10 60 LINE",
"134 60 LINE",
"134 68 LINE"
);
},
{
closed = 1;
nodes = (
"136 58 LINE",
"8 58 LINE",
"8 70 LINE",
"136 70 LINE"
);
}
);
width = 144;
}
);
unicode = 2026;
},
{
glyphname = exclam;
lastChange = "2013-06-12 18:09:54 +0200";
layers = (
{
layerId = "940E2F63-624A-4C3D-A909-721782B4CF41";
name = Regular;
paths = (
{
closed = 1;
nodes = (
"134 126 LINE",
"126 126 LINE",
"126 60 LINE",
"134 60 LINE"
);
},
{
closed = 1;
nodes = (
"124 58 LINE",
"124 128 LINE",
"136 128 LINE",
"136 58 LINE"
);
},
{
closed = 1;
nodes = (
"76 126 LINE",
"68 126 LINE",
"68 60 LINE",
"76 60 LINE"
);
},
{
closed = 1;
nodes = (
"66 58 LINE",
"66 128 LINE",
"78 128 LINE",
"78 58 LINE"
);
},
{
closed = 1;
nodes = (
"18 126 LINE",
"10 126 LINE",
"10 60 LINE",
"18 60 LINE"
);
},
{
closed = 1;
nodes = (
"8 58 LINE",
"8 128 LINE",
"20 128 LINE",
"20 58 LINE"
);
},
{
closed = 1;
nodes = (
"18 10 LINE",
"10 10 LINE",
"10 2 LINE",
"18 2 LINE"
);
},
{
closed = 1;
nodes = (
"8 0 LINE",
"8 12 LINE",
"20 12 LINE",
"20 0 LINE"
);
},
{
closed = 1;
nodes = (
"134 10 LINE",
"126 10 LINE",
"126 2 LINE",
"134 2 LINE"
);
},
{
closed = 1;
nodes = (
"124 0 LINE",
"124 12 LINE",
"136 12 LINE",
"136 0 LINE"
);
},
{
closed = 1;
nodes = (
"76 10 LINE",
"68 10 LINE",
"68 2 LINE",
"76 2 LINE"
);
},
{
closed = 1;
nodes = (
"66 0 LINE",
"66 12 LINE",
"78 12 LINE",
"78 0 LINE"
);
}
);
width = 144;
}
);
unicode = 0021;
},
{
glyphname = numbersign;
lastChange = "2013-06-12 18:08:52 +0200";
layers = (
{
layerId = "940E2F63-624A-4C3D-A909-721782B4CF41";
name = Regular;
paths = (
{
closed = 1;
nodes = (
"10 126 LINE",
"10 2 LINE",
"134 2 LINE",
"134 126 LINE"
);
},
{
closed = 1;
nodes = (
"136 0 LINE",
"8 0 LINE",
"8 128 LINE",
"136 128 LINE"
);
},
{
closed = 1;
nodes = (
"18 118 LINE",
"68 118 LINE",
"68 68 LINE",
"18 68 LINE"
);
},
{
closed = 1;
nodes = (
"66 70 LINE",
"66 116 LINE",
"20 116 LINE",
"20 70 LINE"
);
},
{
closed = 1;
nodes = (
"126 68 LINE",
"76 68 LINE",
"76 118 LINE",
"126 118 LINE"
);
},
{
closed = 1;
nodes = (
"78 116 LINE",
"78 70 LINE",
"124 70 LINE",
"124 116 LINE"
);
},
{
closed = 1;
nodes = (
"18 10 LINE",
"18 60 LINE",
"68 60 LINE",
"68 10 LINE"
);
},
{
closed = 1;
nodes = (
"66 58 LINE",
"20 58 LINE",
"20 12 LINE",
"66 12 LINE"
);
},
{
closed = 1;
nodes = (
"126 10 LINE",
"76 10 LINE",
"76 60 LINE",
"126 60 LINE"
);
},
{
closed = 1;
nodes = (
"78 58 LINE",
"78 12 LINE",
"124 12 LINE",
"124 58 LINE"
);
}
);
width = 144;
}
);
unicode = 0023;
},
{
glyphname = question;
lastChange = "2013-06-12 18:09:59 +0200";
layers = (
{
layerId = "940E2F63-624A-4C3D-A909-721782B4CF41";
name = Regular;
paths = (
{
closed = 1;
nodes = (
"10 126 LINE",
"10 118 LINE",
"126 118 LINE",
"126 68 LINE",
"68 68 LINE",
"68 60 LINE",
"134 60 LINE",
"134 126 LINE"
);
},
{
closed = 1;
nodes = (
"136 58 LINE",
"66 58 LINE",
"66 70 LINE",
"124 70 LINE",
"124 116 LINE",
"8 116 LINE",
"8 128 LINE",
"136 128 LINE"
);
},
{
closed = 1;
nodes = (
"76 10 LINE",
"68 10 LINE",
"68 2 LINE",
"76 2 LINE"
);
},
{
closed = 1;
nodes = (
"66 0 LINE",
"66 12 LINE",
"78 12 LINE",
"78 0 LINE"
);
}
);
width = 144;
}
);
unicode = 003F;
},
{
glyphname = braceleft;
lastChange = "2013-06-12 18:10:07 +0200";
layers = (
{
layerId = "940E2F63-624A-4C3D-A909-721782B4CF41";
name = Regular;
paths = (
{
closed = 1;
nodes = (
"134 118 LINE",
"134 126 LINE",
"68 126 LINE",
"68 68 LINE",
"10 68 LINE",
"10 60 LINE",
"68 60 LINE",
"68 2 LINE",
"134 2 LINE",
"134 10 LINE",
"76 10 LINE",
"76 118 LINE"
);
},
{
closed = 1;
nodes = (
"78 12 LINE",
"136 12 LINE",
"136 0 LINE",
"66 0 LINE",
"66 58 LINE",
"8 58 LINE",
"8 70 LINE",
"66 70 LINE",
"66 128 LINE",
"136 128 LINE",
"136 116 LINE",
"78 116 LINE"
);
}
);
width = 144;
}
);
unicode = 007B;
},
{
glyphname = divide;
lastChange = "2013-11-13 13:00:10 +0100";
layers = (
{
layerId = "940E2F63-624A-4C3D-A909-721782B4CF41";
name = Regular;
paths = (
{
closed = 1;
nodes = (
"68 126 LINE",
"68 118 LINE",
"76 118 LINE",
"76 126 LINE"
);
},
{
closed = 1;
nodes = (
"78 116 LINE",
"66 116 LINE",
"66 128 LINE",
"78 128 LINE"
);
},
{
closed = 1;
nodes = (
"68 10 LINE",
"68 2 LINE",
"76 2 LINE",
"76 10 LINE"
);
},
{
closed = 1;
nodes = (
"78 0 LINE",
"66 0 LINE",
"66 12 LINE",
"78 12 LINE"
);
},
{
closed = 1;
nodes = (
"10 68 LINE",
"10 60 LINE",
"134 60 LINE",
"134 68 LINE"
);
},
{
closed = 1;
nodes = (
"136 58 LINE",
"8 58 LINE",
"8 70 LINE",
"136 70 LINE"
);
}
);
width = 144;
}
);
unicode = 00F7;
},
{
glyphname = notequal;
lastChange = "2013-06-12 18:08:58 +0200";
layers = (
{
layerId = "940E2F63-624A-4C3D-A909-721782B4CF41";
name = Regular;
paths = (
{
closed = 1;
nodes = (
"10 126 LINE",
"10 2 LINE",
"134 2 LINE",
"134 126 LINE"
);
},
{
closed = 1;
nodes = (
"136 0 LINE",
"8 0 LINE",
"8 128 LINE",
"136 128 LINE"
);
},
{
closed = 1;
nodes = (
"18 118 LINE",
"68 118 LINE",
"68 68 LINE",
"18 68 LINE"
);
},
{
closed = 1;
nodes = (
"66 70 LINE",
"66 116 LINE",
"20 116 LINE",
"20 70 LINE"
);
},
{
closed = 1;
nodes = (
"126 68 LINE",
"76 68 LINE",
"76 118 LINE",
"126 118 LINE"
);
},
{
closed = 1;
nodes = (
"78 116 LINE",
"78 70 LINE",
"124 70 LINE",
"124 116 LINE"
);
},
{
closed = 1;
nodes = (
"18 10 LINE",
"18 60 LINE",
"68 60 LINE",
"68 10 LINE"
);
},
{
closed = 1;
nodes = (
"66 58 LINE",
"20 58 LINE",
"20 12 LINE",
"66 12 LINE"
);
},
{
closed = 1;
nodes = (
"126 10 LINE",
"76 10 LINE",
"76 60 LINE",
"126 60 LINE"
);
},
{
closed = 1;
nodes = (
"78 58 LINE",
"78 12 LINE",
"124 12 LINE",
"124 58 LINE"
);
}
);
width = 144;
}
);
unicode = 2260;
},
{
glyphname = plus;
lastChange = "2013-06-12 18:08:44 +0200";
layers = (
{
layerId = "940E2F63-624A-4C3D-A909-721782B4CF41";
name = Regular;
paths = (
{
closed = 1;
nodes = (
"134 68 LINE",
"76 68 LINE",
"76 126 LINE",
"68 126 LINE",
"68 68 LINE",
"10 68 LINE",
"10 60 LINE",
"68 60 LINE",
"68 2 LINE",
"76 2 LINE",
"76 60 LINE",
"134 60 LINE"
);
},
{
closed = 1;
nodes = (
"78 58 LINE",
"78 0 LINE",
"66 0 LINE",
"66 58 LINE",
"8 58 LINE",
"8 70 LINE",
"66 70 LINE",
"66 128 LINE",
"78 128 LINE",
"78 70 LINE",
"136 70 LINE",
"136 58 LINE"
);
}
);
width = 144;
}
);
unicode = 002B;
},
{
glyphname = ampersand;
lastChange = "2013-06-12 18:09:14 +0200";
layers = (
{
layerId = "940E2F63-624A-4C3D-A909-721782B4CF41";
name = Regular;
paths = (
{
closed = 1;
nodes = (
"68 126 LINE",
"68 68 LINE",
"10 68 LINE",
"10 2 LINE",
"134 2 LINE",
"134 10 LINE",
"18 10 LINE",
"18 60 LINE",
"134 60 LINE",
"134 126 LINE"
);
},
{
closed = 1;
nodes = (
"136 58 LINE",
"20 58 LINE",
"20 12 LINE",
"136 12 LINE",
"136 0 LINE",
"8 0 LINE",
"8 70 LINE",
"66 70 LINE",
"66 128 LINE",
"136 128 LINE"
);
},
{
closed = 1;
nodes = (
"126 68 LINE",
"76 68 LINE",
"76 118 LINE",
"126 118 LINE"
);
},
{
closed = 1;
nodes = (
"78 116 LINE",
"78 70 LINE",
"124 70 LINE",
"124 116 LINE"
);
}
);
width = 144;
}
);
unicode = 0026;
},
{
glyphname = degree;
lastChange = "2013-06-12 18:09:17 +0200";
layers = (
{
layerId = "940E2F63-624A-4C3D-A909-721782B4CF41";
name = Regular;
paths = (
{
closed = 1;
nodes = (
"76 126 LINE",
"10 126 LINE",
"10 60 LINE",
"76 60 LINE"
);
},
{
closed = 1;
nodes = (
"8 58 LINE",
"8 128 LINE",
"78 128 LINE",
"78 58 LINE"
);
},
{
closed = 1;
nodes = (
"68 118 LINE",
"68 68 LINE",
"18 68 LINE",
"18 118 LINE"
);
},
{
closed = 1;
nodes = (
"20 70 LINE",
"66 70 LINE",
"66 116 LINE",
"20 116 LINE"
);
},
{
closed = 1;
nodes = (
"126 10 LINE",
"68 10 LINE",
"68 2 LINE",
"134 2 LINE",
"134 68 LINE",
"126 68 LINE"
);
},
{
closed = 1;
nodes = (
"136 70 LINE",
"136 0 LINE",
"66 0 LINE",
"66 12 LINE",
"124 12 LINE",
"124 70 LINE"
);
}
